#define b9a1b9dbbc8c47a5d26a31db54c4577abbYT7jthI8rrdl9z_width 64
#define b9a1b9dbbc8c47a5d26a31db54c4577abbYT7jthI8rrdl9z_height 64
static char b9a1b9dbbc8c47a5d26a31db54c4577abbYT7jthI8rrdl9z_bits[] = {
  0x00, 0x00, 0x00, 0x00, 0x00, 0x00, 0x00, 0x00, 0x00, 0x00, 0x00, 0x00, 
  0x00, 0x00, 0x00, 0x00, 0x00, 0x00, 0x00, 0x00, 0x00, 0x00, 0x00, 0x00, 
  0x00, 0x00, 0x00, 0x00, 0x00, 0x00, 0x00, 0x00, 0x00, 0x00, 0x00, 0x00, 
  0x00, 0x00, 0x00, 0x00, 0x00, 0xE0, 0xFF, 0xFF, 0x01, 0x00, 0x00, 0x00, 
  0x00, 0xE0, 0xFF, 0xFF, 0x01, 0x00, 0x00, 0x00, 0x00, 0xE0, 0xFF, 0xFF, 
  0x01, 0x00, 0x00, 0x00, 0x00, 0x60, 0x00, 0x80, 0x01, 0x00, 0x00, 0x00, 
  0x00, 0x60, 0x00, 0x80, 0x01, 0x00, 0x00, 0x00, 0x00, 0x60, 0x38, 0x86, 
  0x01, 0xFF, 0xFF, 0x0F, 0x00, 0x60, 0x38, 0x87, 0x01, 0xFF, 0xFF, 0x0F, 
  0x00, 0x60, 0x38, 0x87, 0x01, 0xFF, 0xFF, 0x0F, 0x00, 0x60, 0x00, 0x80, 
  0x01, 0x03, 0x00, 0x0C, 0x00, 0x60, 0x00, 0x80, 0x01, 0x03, 0x00, 0x0C, 
  0x00, 0x60, 0x38, 0x86, 0x01, 0xC3, 0x10, 0x0C, 0x00, 0x60, 0x38, 0x87, 
  0x01, 0xC3, 0x39, 0x0C, 0x00, 0x60, 0x38, 0x87, 0x01, 0xC3, 0x39, 0x0C, 
  0x00, 0x60, 0x00, 0x80, 0x01, 0x03, 0x00, 0x0C, 0x00, 0x60, 0x00, 0x80, 
  0x01, 0x03, 0x00, 0x0C, 0x00, 0x60, 0x00, 0x80, 0x01, 0x03, 0x00, 0x0C, 
  0x00, 0x60, 0x00, 0x80, 0x01, 0xC3, 0x39, 0x0C, 0x00, 0x60, 0x00, 0x80, 
  0x01, 0xC3, 0x39, 0x0C, 0x00, 0x60, 0x00, 0x80, 0x01, 0x03, 0x00, 0x0C, 
  0x00, 0x60, 0x00, 0x80, 0x01, 0x03, 0x00, 0x0C, 0x00, 0xF0, 0x00, 0x80, 
  0x01, 0x03, 0x00, 0x0C, 0xF0, 0xFF, 0xFF, 0x80, 0x01, 0xC3, 0x39, 0x0C, 
  0xF0, 0xFF, 0xFF, 0x80, 0x01, 0xC3, 0x39, 0x0C, 0x30, 0x00, 0xC0, 0x80, 
  0x01, 0x03, 0x00, 0x0C, 0x30, 0x00, 0xC0, 0x80, 0x01, 0x03, 0x00, 0x0C, 
  0x30, 0x00, 0xC0, 0x80, 0x01, 0x03, 0x00, 0x0C, 0x30, 0x9C, 0xC3, 0x80, 
  0x01, 0xC3, 0x39, 0x0C, 0x30, 0x9C, 0xC3, 0x80, 0x01, 0xC3, 0x39, 0x0C, 
  0x30, 0x00, 0xC0, 0x80, 0x01, 0x03, 0x00, 0x0C, 0x30, 0x00, 0xC0, 0x80, 
  0x01, 0x03, 0x00, 0x0C, 0x30, 0x00, 0xC0, 0x80, 0x01, 0x03, 0x00, 0x0C, 
  0x30, 0x9C, 0xC3, 0xFF, 0xFF, 0xC3, 0x39, 0x0C, 0x30, 0x9C, 0xC3, 0xFF, 
  0xFF, 0xC3, 0x39, 0x0C, 0x30, 0x00, 0xC0, 0x01, 0x80, 0x03, 0x00, 0x0C, 
  0x30, 0x00, 0xC0, 0x00, 0x00, 0x03, 0x00, 0x0C, 0x30, 0x00, 0xC0, 0x00, 
  0x00, 0x03, 0x00, 0x0C, 0x30, 0x9C, 0xC3, 0x70, 0x0E, 0xC3, 0x39, 0x0C, 
  0x30, 0x9C, 0xC3, 0x70, 0x0E, 0xC3, 0x39, 0x0C, 0x30, 0x08, 0xC1, 0x20, 
  0x04, 0x83, 0x10, 0x0C, 0x70, 0x00, 0xC0, 0x00, 0x00, 0x03, 0x00, 0x0C, 
  0x70, 0x00, 0xC0, 0x00, 0x00, 0x03, 0x00, 0x0C, 0x70, 0x00, 0xC0, 0x70, 
  0x0E, 0xC3, 0x39, 0x0C, 0x70, 0x00, 0xC0, 0x70, 0x0E, 0xC3, 0x39, 0x0C, 
  0x70, 0x00, 0xC0, 0x30, 0x0C, 0xC3, 0x18, 0x0C, 0x70, 0x00, 0xC0, 0x00, 
  0x00, 0x03, 0x00, 0x0C, 0x70, 0x00, 0xC0, 0x00, 0x00, 0x03, 0x00, 0x0C, 
  0x70, 0x60, 0xC0, 0x80, 0x01, 0x03, 0x06, 0x0C, 0x70, 0x60, 0xC0, 0x80, 
  0x01, 0x03, 0x06, 0x0C, 0x70, 0x60, 0xC0, 0x80, 0x01, 0x03, 0x06, 0x0C, 
  0x70, 0x60, 0xC0, 0x80, 0x01, 0x03, 0x06, 0x0C, 0x70, 0x60, 0xC0, 0x80, 
  0x01, 0x03, 0x06, 0x0C, 0xF0, 0xFF, 0xFF, 0xFF, 0xFF, 0xFF, 0xFF, 0x0F, 
  0xF0, 0xFF, 0xFF, 0xFF, 0xFF, 0xFF, 0xFF, 0x0F, 0xF0, 0xFF, 0xFF, 0xFF, 
  0xFF, 0xFF, 0xFF, 0x0F, 0x00, 0x00, 0x00, 0x00, 0x00, 0x00, 0x00, 0x00, 
  0x00, 0x00, 0x00, 0x00, 0x00, 0x00, 0x00, 0x00, 0x00, 0x00, 0x00, 0x00, 
  0x00, 0x00, 0x00, 0x00, 0x00, 0x00, 0x00, 0x00, 0x00, 0x00, 0x00, 0x00, 
  0x00, 0x00, 0x00, 0x00, 0x00, 0x00, 0x00, 0x00, };
