#define 7dc7446c3b2b424397e5fb44a1dcd0a5E4fhpr29aaOPTCpZ_width 12
#define 7dc7446c3b2b424397e5fb44a1dcd0a5E4fhpr29aaOPTCpZ_height 12
static char 7dc7446c3b2b424397e5fb44a1dcd0a5E4fhpr29aaOPTCpZ_bits[] = {
  0xC0, 0x00, 0x47, 0x01, 0xF9, 0x07, 0x61, 0x0F, 0x20, 0x0B, 0xE2, 0x0F, 
  0x22, 0x0B, 0x4C, 0x0E, 0x24, 0x0E, 0x10, 0x05, 0x18, 0x05, 0xE0, 0x01, 
  };
